<?xml version="1.0" standalone="no"?>
<!DOCTYPE svg PUBLIC "-//W3C//DTD SVG 20010904//EN"
 "http://www.w3.org/TR/2001/REC-SVG-20010904/DTD/svg10.dtd">
<svg version="1.0" xmlns="http://www.w3.org/2000/svg"
 width="1200.000000pt" height="1200.000000pt" viewBox="0 0 1200.000000 1200.000000"
 preserveAspectRatio="xMidYMid meet">
<metadata>
Created by potrace 1.16, written by Peter Selinger 2001-2019
</metadata>
<g transform="translate(0.000000,1200.000000) scale(0.100000,-0.100000)"
fill="#fff" stroke="none">
<path d="M5710 11623 c-590 -28 -1216 -165 -1790 -390 -204 -80 -598 -273
-785 -385 -851 -510 -1529 -1197 -2025 -2053 -77 -133 -271 -532 -328 -675
-209 -522 -331 -1027 -389 -1600 -24 -244 -24 -795 0 -1040 84 -841 331 -1612
742 -2315 568 -970 1398 -1738 2410 -2231 951 -463 2017 -646 3083 -529 1456
160 2822 906 3738 2040 852 1056 1295 2350 1261 3685 -23 855 -207 1606 -582
2365 -349 708 -835 1327 -1436 1826 -1095 912 -2469 1371 -3899 1302z m2210
-3383 l0 -480 -1440 0 -1440 0 2 -577 3 -578 1323 -3 1322 -2 0 -470 0 -470
-1325 0 -1325 0 2 -702 3 -703 1508 -3 1507 -2 0 -485 0 -485 -2060 0 -2060 0
0 2720 0 2720 1990 0 1990 0 0 -480z"/>
</g>
</svg>
